<svg xmlns="http://www.w3.org/2000/svg" width="1475" height="294" viewBox="0 0 1475 294"><g transform="translate(147.00,147.00) rotate(0) scale(2.1000)"><circle cx="0" cy="0" r="50" fill="#F4A261"/><path d="M 0,-34 C -20,-34 -26,-14 -17,-1 C -12,6 -11,9 -11,16 L 11,16 C 11,9 12,6 17,-1 C 26,-14 20,-34 0,-34 Z" fill="#14213D"/><rect x="-10" y="20" width="20" height="5" rx="2" fill="#14213D"/><rect x="-7" y="28" width="14" height="5" rx="2.5" fill="#14213D"/><path d="M -6,14 L -6,2 L 0,-6 L 6,2 L 6,14" fill="none" stroke="#F4A261" stroke-width="3" stroke-linejoin="round"/></g><path d="M365.27272727272725 220.8181818181818Q353.6060606060606 220.8181818181818 341.5151515151515 217.95454545454544Q329.42424242424244 215.0909090909091 321.3636363636364 210.42424242424244L322.42424242424244 181.57575757575756H324.54545454545456L331.1212121212121 195.36363636363637Q334.09090909090907 201.3030303030303 337.4848484848485 205.86363636363637Q340.8787878787879 210.42424242424244 346.8181818181818 212.96969696969697Q351.06060606060606 215.0909090909091 354.9848484848485 215.83333333333331Q358.90909090909093 216.57575757575756 363.7878787878788 216.57575757575756Q376.72727272727275 216.57575757575756 384.25757575757575 209.57575757575756Q391.7878787878788 202.57575757575756 391.7878787878788 191.54545454545453Q391.7878787878788 181.15151515151516 386.69696969696975 175.3181818181818Q381.6060606060606 169.4848484848485 370.3636363636364 163.96969696969697L361.6666666666667 160.15151515151516Q343.42424242424244 152.0909090909091 333.1363636363636 141.5909090909091Q322.8484848484849 131.0909090909091 322.8484848484849 113.69696969696969Q322.8484848484849 101.18181818181817 329.31818181818187 92.06060606060606Q335.7878787878788 82.93939393939394 347.3484848484849 78.06060606060606Q358.90909090909093 73.18181818181819 374.3939393939394 73.18181818181819Q385.6363636363636 73.18181818181819 395.71212121212125 76.15151515151516Q405.7878787878788 79.12121212121212 413.21212121212125 84.21212121212122L411.93939393939394 109.66666666666666H409.8181818181818L401.1212121212121 93.75757575757575Q397.5151515151515 86.33333333333334 393.9090909090909 83.25757575757576Q390.3030303030303 80.18181818181819 385.6363636363636 78.9090909090909Q382.8787878787879 78.06060606060606 380.5454545454545 77.74242424242424Q378.2121212121212 77.42424242424241 374.6060606060606 77.42424242424241Q363.7878787878788 77.42424242424241 356.3636363636364 83.68181818181817Q348.93939393939394 89.93939393939394 348.93939393939394 100.54545454545455Q348.93939393939394 111.36363636363636 354.66666666666663 117.83333333333333Q360.3939393939394 124.3030303030303 371.42424242424244 129.39393939393938L381.1818181818182 133.63636363636363Q401.54545454545456 142.54545454545456 410.4545454545455 152.62121212121212Q419.3636363636364 162.6969696969697 419.3636363636364 178.6060606060606Q419.3636363636364 197.27272727272728 405.25757575757575 209.04545454545456Q391.1515151515151 220.8181818181818 365.27272727272725 220.8181818181818Z M462.1272727272727 220.1818181818182Q449.82424242424247 220.1818181818182 441.4454545454546 213.1818181818182Q433.06666666666666 206.1818181818182 433.06666666666666 193.03030303030303Q433.06666666666666 183.06060606060606 443.24848484848485 174.6818181818182Q453.43030303030304 166.3030303030303 475.2787878787879 162.06060606060606Q478.6727272727273 161.42424242424244 482.91515151515154 160.6818181818182Q487.1575757575758 159.93939393939394 491.82424242424247 159.0909090909091V142.33333333333331Q491.82424242424247 127.9090909090909 488.32424242424247 122.07575757575756Q484.82424242424247 116.24242424242424 477.40000000000003 116.24242424242424Q472.3090909090909 116.24242424242424 469.339393939394 119.53030303030303Q466.369696969697 122.81818181818181 465.52121212121216 130.87878787878788L465.0969696969697 133.2121212121212Q464.6727272727273 142.33333333333331 460.6424242424242 146.57575757575756Q456.6121212121212 150.8181818181818 450.6727272727273 150.8181818181818Q445.1575757575758 150.8181818181818 441.5515151515152 147.42424242424244Q437.9454545454546 144.03030303030303 437.9454545454546 138.3030303030303Q437.9454545454546 129.60606060606062 443.9909090909091 123.66666666666667Q450.03636363636366 117.72727272727272 460.0060606060606 114.75757575757575Q469.9757575757576 111.78787878787878 481.6424242424243 111.78787878787878Q500.52121212121216 111.78787878787878 510.80909090909097 121.01515151515152Q521.0969696969697 130.24242424242425 521.0969696969697 151.03030303030303V197.9090909090909Q521.0969696969697 207.45454545454547 530.0060606060606 207.45454545454547H534.6727272727273L536.5818181818182 209.15151515151516Q532.5515151515152 214.24242424242425 527.7787878787879 217.0Q523.0060606060606 219.75757575757575 514.309090909091 219.75757575757575Q504.9757575757576 219.75757575757575 499.5666666666667 215.4090909090909Q494.1575757575758 211.06060606060606 492.4606060606061 203.84848484848484Q486.0969696969697 210.63636363636363 479.41515151515154 215.4090909090909Q472.73333333333335 220.1818181818182 462.1272727272727 220.1818181818182ZM475.0666666666667 207.24242424242425Q479.3090909090909 207.24242424242425 483.0212121212121 205.22727272727275Q486.73333333333335 203.21212121212122 491.82424242424247 198.96969696969697V163.33333333333331Q489.70303030303035 163.75757575757575 487.5818181818182 164.1818181818182Q485.4606060606061 164.6060606060606 482.70303030303035 165.03030303030303Q472.9454545454546 167.57575757575756 467.1121212121212 173.62121212121212Q461.2787878787879 179.66666666666666 461.2787878787879 189.84848484848484Q461.2787878787879 198.54545454545453 465.30909090909097 202.89393939393938Q469.339393939394 207.24242424242425 475.0666666666667 207.24242424242425Z M542.4363636363637 265.7878787878788V263.6666666666667L544.9818181818182 262.8181818181818Q552.8303030303031 260.6969696969697 552.8303030303031 252.63636363636363V137.24242424242425Q552.8303030303031 132.57575757575756 551.239393939394 130.24242424242425Q549.6484848484849 127.9090909090909 545.4060606060607 127.06060606060606L542.4363636363637 126.42424242424242V124.3030303030303L578.4969696969697 112.0L580.6181818181818 114.12121212121212L582.5272727272728 120.69696969696969Q589.5272727272728 116.45454545454545 598.1181818181819 114.12121212121212Q606.709090909091 111.78787878787878 615.8303030303031 111.78787878787878Q634.0727272727273 111.78787878787878 644.7848484848485 125.68181818181817Q655.4969696969697 139.57575757575756 655.4969696969697 165.45454545454544Q655.4969696969697 190.9090909090909 643.7242424242424 205.54545454545456Q631.9515151515152 220.1818181818182 610.5272727272728 220.1818181818182Q593.7696969696971 220.1818181818182 582.3151515151516 215.3030303030303V252.0Q582.3151515151516 260.4848484848485 589.9515151515152 262.6060606060606L593.9818181818182 263.6666666666667V265.7878787878788ZM600.3454545454546 214.03030303030303Q610.9515151515152 214.03030303030303 617.209090909091 203.0Q623.4666666666667 191.96969696969697 623.4666666666667 166.3030303030303Q623.4666666666667 140.63636363636363 617.5272727272727 130.34848484848484Q611.5878787878788 120.06060606060606 600.3454545454546 120.06060606060606Q592.4969696969697 120.06060606060606 582.9515151515152 125.15151515151516V210.63636363636363Q591.0121212121213 214.03030303030303 600.3454545454546 214.03030303030303Z M719.6848484848485 111.78787878787878Q733.4727272727273 111.78787878787878 743.230303030303 117.4090909090909Q752.9878787878788 123.03030303030303 758.1848484848485 132.6818181818182Q763.3818181818183 142.33333333333331 763.3818181818183 154.63636363636363Q763.3818181818183 156.96969696969697 763.169696969697 159.4090909090909Q762.9575757575758 161.84848484848484 762.3212121212122 163.75757575757575H699.1090909090909Q699.3212121212122 186.66666666666666 707.2757575757576 196.74242424242425Q715.230303030303 206.8181818181818 730.9272727272728 206.8181818181818Q741.5333333333334 206.8181818181818 748.109090909091 203.42424242424244Q754.6848484848485 200.03030303030303 760.4121212121213 193.45454545454544L762.5333333333334 195.36363636363637Q755.9575757575758 207.03030303030303 745.0333333333333 213.60606060606062Q734.1090909090909 220.1818181818182 718.8363636363637 220.1818181818182Q703.7757575757577 220.1818181818182 692.109090909091 213.71212121212122Q680.4424242424243 207.24242424242425 673.8666666666668 195.15151515151516Q667.2909090909092 183.06060606060606 667.2909090909092 166.3030303030303Q667.2909090909092 148.9090909090909 674.9272727272728 136.71212121212122Q682.5636363636364 124.51515151515152 694.5484848484849 118.15151515151516Q706.5333333333334 111.78787878787878 719.6848484848485 111.78787878787878ZM719.0484848484849 116.03030303030303Q712.8969696969698 116.03030303030303 708.5484848484849 119.74242424242425Q704.2 123.45454545454545 701.760606060606 132.89393939393938Q699.3212121212122 142.33333333333331 699.1090909090909 159.5151515151515H735.3818181818183Q737.5030303030303 136.39393939393938 733.6848484848485 126.2121212121212Q729.8666666666667 116.03030303030303 719.0484848484849 116.03030303030303Z M822.9030303030304 217.63636363636363 785.3575757575759 127.48484848484848Q782.3878787878789 120.27272727272727 775.1757575757576 117.93939393939394L772.2060606060606 117.0909090909091V114.96969696969697H827.1454545454546V117.0909090909091L823.3272727272728 117.93939393939394Q815.0545454545455 120.06060606060606 818.2363636363638 128.96969696969697L840.509090909091 188.15151515151516L861.2969696969698 129.39393939393938Q862.9939393939395 125.15151515151516 862.1454545454546 122.3939393939394Q861.2969696969698 119.63636363636364 857.0545454545455 118.36363636363636L851.7515151515153 117.0909090909091V114.96969696969697H882.509090909091V117.0909090909091L876.3575757575759 118.57575757575758Q872.3272727272729 119.63636363636364 870.1000000000001 121.75757575757575Q867.8727272727274 123.87878787878788 866.3878787878789 128.12121212121212L835.2060606060606 217.63636363636363Z M920.1818181818184 220.1818181818182Q907.878787878788 220.1818181818182 899.5000000000001 213.1818181818182Q891.1212121212122 206.1818181818182 891.1212121212122 193.03030303030303Q891.1212121212122 183.06060606060606 901.3030303030305 174.6818181818182Q911.4848484848486 166.3030303030303 933.3333333333335 162.06060606060606Q936.7272727272729 161.42424242424244 940.9696969696971 160.6818181818182Q945.2121212121214 159.93939393939394 949.878787878788 159.0909090909091V142.33333333333331Q949.878787878788 127.9090909090909 946.378787878788 122.07575757575756Q942.878787878788 116.24242424242424 935.4545454545456 116.24242424242424Q930.3636363636365 116.24242424242424 927.3939393939395 119.53030303030303Q924.4242424242426 122.81818181818181 923.5757575757577 130.87878787878788L923.1515151515152 133.2121212121212Q922.7272727272729 142.33333333333331 918.6969696969699 146.57575757575756Q914.6666666666669 150.8181818181818 908.7272727272729 150.8181818181818Q903.2121212121214 150.8181818181818 899.6060606060607 147.42424242424244Q896.0000000000001 144.03030303030303 896.0000000000001 138.3030303030303Q896.0000000000001 129.60606060606062 902.0454545454547 123.66666666666667Q908.0909090909092 117.72727272727272 918.0606060606062 114.75757575757575Q928.0303030303032 111.78787878787878 939.6969696969699 111.78787878787878Q958.5757575757577 111.78787878787878 968.8636363636365 121.01515151515152Q979.1515151515152 130.24242424242425 979.1515151515152 151.03030303030303V197.9090909090909Q979.1515151515152 207.45454545454547 988.0606060606062 207.45454545454547H992.7272727272729L994.6363636363637 209.15151515151516Q990.6060606060607 214.24242424242425 985.8333333333335 217.0Q981.0606060606062 219.75757575757575 972.3636363636365 219.75757575757575Q963.0303030303032 219.75757575757575 957.6212121212122 215.4090909090909Q952.2121212121214 211.06060606060606 950.5151515151516 203.84848484848484Q944.1515151515152 210.63636363636363 937.4696969696971 215.4090909090909Q930.787878787879 220.1818181818182 920.1818181818184 220.1818181818182ZM933.1212121212122 207.24242424242425Q937.3636363636365 207.24242424242425 941.0757575757577 205.22727272727275Q944.787878787879 203.21212121212122 949.878787878788 198.96969696969697V163.33333333333331Q947.7575757575759 163.75757575757575 945.6363636363637 164.1818181818182Q943.5151515151516 164.6060606060606 940.7575757575759 165.03030303030303Q931.0000000000001 167.57575757575756 925.1666666666667 173.62121212121212Q919.3333333333335 179.66666666666666 919.3333333333335 189.84848484848484Q919.3333333333335 198.54545454545453 923.3636363636365 202.89393939393938Q927.3939393939395 207.24242424242425 933.1212121212122 207.24242424242425Z M1040.7939393939396 220.1818181818182Q1027.2181818181818 220.1818181818182 1019.6878787878788 213.39393939393938Q1012.1575757575758 206.6060606060606 1012.1575757575758 191.75757575757575V119.2121212121212H997.5212121212122V117.0909090909091L1002.6121212121213 116.24242424242424Q1009.187878787879 114.75757575757575 1013.9606060606062 112.0Q1018.7333333333335 109.24242424242424 1023.4000000000001 104.57575757575758L1040.7939393939396 85.27272727272728H1042.9151515151516L1042.278787878788 114.96969696969697H1066.0363636363638V119.2121212121212H1042.0666666666668V195.57575757575756Q1042.0666666666668 203.0 1045.3545454545456 206.8181818181818Q1048.6424242424243 210.63636363636363 1053.7333333333333 210.63636363636363Q1058.1878787878788 210.63636363636363 1061.581818181818 208.4090909090909Q1064.9757575757576 206.1818181818182 1068.369696969697 202.36363636363637L1070.490909090909 204.4848484848485Q1066.248484848485 211.6969696969697 1058.8242424242426 215.93939393939394Q1051.4 220.1818181818182 1040.7939393939396 220.1818181818182Z M1131.709090909091 111.78787878787878Q1145.4969696969697 111.78787878787878 1155.2545454545455 117.4090909090909Q1165.0121212121212 123.03030303030303 1170.209090909091 132.6818181818182Q1175.4060606060607 142.33333333333331 1175.4060606060607 154.63636363636363Q1175.4060606060607 156.96969696969697 1175.1939393939394 159.4090909090909Q1174.9818181818182 161.84848484848484 1174.3454545454547 163.75757575757575H1111.1333333333334Q1111.3454545454547 186.66666666666666 1119.3000000000002 196.74242424242425Q1127.2545454545455 206.8181818181818 1142.9515151515152 206.8181818181818Q1153.5575757575757 206.8181818181818 1160.1333333333332 203.42424242424244Q1166.709090909091 200.03030303030303 1172.4363636363637 193.45454545454544L1174.5575757575757 195.36363636363637Q1167.9818181818182 207.03030303030303 1157.0575757575757 213.60606060606062Q1146.1333333333334 220.1818181818182 1130.8606060606062 220.1818181818182Q1115.8 220.1818181818182 1104.1333333333332 213.71212121212122Q1092.4666666666667 207.24242424242425 1085.8909090909092 195.15151515151516Q1079.3151515151515 183.06060606060606 1079.3151515151515 166.3030303030303Q1079.3151515151515 148.9090909090909 1086.9515151515152 136.71212121212122Q1094.5878787878787 124.51515151515152 1106.5727272727272 118.15151515151516Q1118.5575757575757 111.78787878787878 1131.709090909091 111.78787878787878ZM1131.0727272727272 116.03030303030303Q1124.9212121212122 116.03030303030303 1120.5727272727272 119.74242424242425Q1116.2242424242424 123.45454545454545 1113.7848484848487 132.89393939393938Q1111.3454545454547 142.33333333333331 1111.1333333333334 159.5151515151515H1147.4060606060607Q1149.5272727272727 136.39393939393938 1145.709090909091 126.2121212121212Q1141.8909090909092 116.03030303030303 1131.0727272727272 116.03030303030303Z M1188.048484848485 217.0V214.87878787878788L1190.5939393939395 214.03030303030303Q1198.230303030303 211.4848484848485 1198.230303030303 203.42424242424244V89.93939393939394Q1198.230303030303 85.69696969696969 1196.5333333333333 83.46969696969697Q1194.8363636363638 81.24242424242425 1190.5939393939395 80.18181818181819L1187.8363636363638 79.54545454545453V77.42424242424241L1226.6545454545455 68.30303030303031L1229.2 70.21212121212122L1228.3515151515153 99.9090909090909V172.45454545454544Q1228.3515151515153 180.3030303030303 1228.4575757575758 188.04545454545456Q1228.5636363636365 195.78787878787878 1228.5636363636365 203.42424242424244Q1228.5636363636365 207.66666666666666 1230.2606060606063 210.3181818181818Q1231.9575757575758 212.96969696969697 1235.9878787878788 214.24242424242425L1238.7454545454545 214.87878787878788V217.0Z M1303.1454545454546 220.1818181818182Q1287.0242424242424 220.1818181818182 1275.1454545454544 213.5Q1263.2666666666667 206.8181818181818 1256.7969696969697 194.5151515151515Q1250.3272727272727 182.21212121212122 1250.3272727272727 165.66666666666666Q1250.3272727272727 149.12121212121212 1257.2212121212121 137.03030303030303Q1264.1151515151516 124.93939393939394 1276.1 118.36363636363636Q1288.0848484848484 111.78787878787878 1303.1454545454546 111.78787878787878Q1318.2060606060606 111.78787878787878 1330.0848484848484 118.25757575757575Q1341.9636363636364 124.72727272727272 1348.857575757576 136.8181818181818Q1355.7515151515152 148.9090909090909 1355.7515151515152 165.66666666666666Q1355.7515151515152 182.42424242424244 1349.2818181818182 194.62121212121212Q1342.8121212121212 206.8181818181818 1331.039393939394 213.5Q1319.2666666666667 220.1818181818182 1303.1454545454546 220.1818181818182ZM1303.1454545454546 215.93939393939394Q1310.569696969697 215.93939393939394 1315.0242424242424 211.6969696969697Q1319.478787878788 207.45454545454547 1321.4939393939394 196.63636363636363Q1323.509090909091 185.8181818181818 1323.509090909091 166.0909090909091Q1323.509090909091 146.15151515151516 1321.4939393939394 135.33333333333334Q1319.478787878788 124.51515151515152 1315.0242424242424 120.27272727272728Q1310.569696969697 116.03030303030303 1303.1454545454546 116.03030303030303Q1295.7212121212121 116.03030303030303 1291.160606060606 120.27272727272728Q1286.6 124.51515151515152 1284.5848484848484 135.33333333333334Q1282.569696969697 146.15151515151516 1282.569696969697 166.0909090909091Q1282.569696969697 185.8181818181818 1284.5848484848484 196.63636363636363Q1286.6 207.45454545454547 1291.160606060606 211.6969696969697Q1295.7212121212121 215.93939393939394 1303.1454545454546 215.93939393939394Z M1397.6666666666667 74.45454545454544Q1405.5151515151515 74.45454545454544 1409.969696969697 79.43939393939392Q1414.4242424242425 84.42424242424241 1414.4242424242425 92.48484848484848Q1414.4242424242425 99.06060606060606 1411.030303030303 112.95454545454545Q1407.6363636363637 126.84848484848484 1404.030303030303 143.60606060606062L1399.5757575757575 165.87878787878788H1395.5454545454545L1391.090909090909 143.60606060606062Q1387.6969696969697 127.27272727272727 1384.3030303030305 113.37878787878788Q1380.909090909091 99.48484848484848 1380.909090909091 92.48484848484848Q1380.909090909091 84.42424242424241 1385.3636363636365 79.43939393939392Q1389.8181818181818 74.45454545454544 1397.6666666666667 74.45454545454544ZM1397.6666666666667 220.1818181818182Q1389.8181818181818 220.1818181818182 1384.5151515151515 214.87878787878788Q1379.2121212121212 209.57575757575756 1379.2121212121212 201.93939393939394Q1379.2121212121212 194.5151515151515 1384.5151515151515 189.1060606060606Q1389.8181818181818 183.6969696969697 1397.6666666666667 183.6969696969697Q1405.3030303030303 183.6969696969697 1410.6060606060605 189.1060606060606Q1415.909090909091 194.5151515151515 1415.909090909091 201.93939393939394Q1415.909090909091 209.57575757575756 1410.6060606060605 214.87878787878788Q1405.3030303030303 220.1818181818182 1397.6666666666667 220.1818181818182Z" fill="#F5F0E6"/></svg>